<?xml version="1.0" encoding="utf-8"?>
<!-- Generator: Adobe Illustrator 27.2.0, SVG Export Plug-In . SVG Version: 6.00 Build 0)  -->
<svg version="1.1" id="logo" xmlns="http://www.w3.org/2000/svg" xmlns:xlink="http://www.w3.org/1999/xlink" x="0px" y="0px"
	 viewBox="0 0 36 36" style="enable-background:new 0 0 36 36;" xml:space="preserve">
<style type="text/css">
	.st0{fill:#62328A;}
</style>
<path id="_x35_" class="st0" d="M10.1,34.1C5.7,32,2.5,28.3,1,23.8c-1.5-4.5-1.2-9.4,0.9-13.7C4,5.7,7.7,2.5,12.2,1
	c4.5-1.5,9.4-1.2,13.7,0.9C30.2,4,33.5,7.7,35,12.2c1.5,4.5,1.2,9.4-0.9,13.7c-2.1,4.3-5.8,7.5-10.3,9.1
	C19.2,36.6,14.4,36.2,10.1,34.1L10.1,34.1z M25.5,2.8c-4.1-2-8.6-2.3-12.9-0.8c-4.3,1.5-7.7,4.5-9.7,8.6S0.5,19.2,2,23.4
	c1.5,4.3,4.5,7.7,8.6,9.7s8.6,2.3,12.9,0.8c4.3-1.5,7.7-4.5,9.7-8.6s2.3-8.6,0.8-12.9C32.6,8.3,29.5,4.8,25.5,2.8z"/>
<path id="_x34_" class="st0" d="M6.9,14.9c0,0,1.7-1,4.3-0.6c2.4,0.3,4.9,2.1,4.5,4.7c-0.4,2.3-3.1,3.6-5.1,2.3
	C7.8,19.4,9.3,16.5,6.9,14.9"/>
<path id="_x33_" class="st0" d="M31.2,14.6c-1.6-1.7-3.9-3.3-6.5-3.8c-4.3-0.7-7.8,2.4-7.5,5.3c0.3,2.9,3.3,5,6.2,3.7
	C26.4,18.5,26.6,15.4,31.2,14.6"/>
<path id="_x32_" class="st0" d="M26.1,11.2c1,0.6,1.9,1.4,2.6,2.2c-4.6,0.8-4.8,3.9-7.8,5.2c-0.8,0.4-1.6,0.5-2.4,0.4
	c1.2,1.2,3.1,1.7,4.9,0.9c3-1.3,3.2-4.4,7.8-5.2C29.9,13.2,28.2,11.9,26.1,11.2z"/>
<path id="_x31_" class="st0" d="M14.2,25l-1.4,2.9c-0.1,0.3,0,0.6,0.2,0.7c0.3,0.1,0.6,0,0.7-0.2l4.4-9c2-4,4.5-4.1,4.6-4.1
	c0.3,0,0.5-0.2,0.5-0.5c0-0.3-0.2-0.5-0.5-0.5c-0.1,0-3.3,0.1-5.6,4.7l-1.9,3.8c-0.3-2.3-1.5-4.7-3.2-5.9c-0.2-0.2-0.6-0.1-0.7,0.1
	c-0.2,0.2-0.1,0.6,0.1,0.7c1.9,1.3,3.1,4.5,2.7,6.9C14.2,24.7,14.2,24.8,14.2,25L14.2,25z"/>
</svg>
